<svg xmlns="http://www.w3.org/2000/svg" version="1.1" viewBox="-5.0 -10.0 110.0 135.0">
 <path d="m23.801 45.199-18.402-21.098c-0.5-0.60156-0.5-1.5 0.10156-2 0.30078-0.30078 0.69922-0.39844 1-0.39844 0.39844 0 0.80078 0.10156 1 0.39844l17.602 17.898c0.89844 0.89844 2.3984 0.89844 3.3008 0 0.39844-0.39844 0.69922-1 0.69922-1.6016 0-0.60156-0.19922-1.1016-0.60156-1.6016l-17.398-18.398c-0.5-0.60156-0.5-1.5 0-2 0.30078-0.30078 0.69922-0.39844 1-0.39844 0.39844 0 0.69922 0.10156 1 0.39844l18.398 17.301c0.89844 0.89844 2.3008 0.80078 3.1992 0 0.5-0.5 0.69922-1 0.69922-1.6016 0-0.60156-0.19922-1.1992-0.69922-1.6016l-17.801-17.797c-0.60156-0.60156-0.60156-1.5 0-2.1016 0.30078-0.30078 0.69922-0.39844 1-0.39844 0.30078 0 0.69922 0.10156 1 0.39844l21.102 18.402c2.3984 2.1016 3.6992 5.3008 3.5 8.5l-0.19922 2.8008c-0.19922 2.3008 0.80078 4.6016 2.6016 6.1992l4.1016 3.5-5.5 4.6992-3.2031-3.6992c-1.5-1.8008-3.8008-2.6992-6.1992-2.6016l-2.8008 0.19922c-3.1992 0.30078-6.3008-0.99609-8.5-3.3984zm58.398 32.699-23-19.801-6 6.8984 19.398 22.398c2.6016 3 7.1992 3.1992 9.8984 0.39844 2.9023-2.793 2.7031-7.3945-0.29688-9.8945zm10.102-61.5c-5.8984-5.8984-20-1.3984-27.898 6.5-4.8008 4.8008-6.8008 10.301-6.1992 15.301 0.5 4.5-1.1992 8.8984-4.6016 11.801l-32.398 28c-3.0039 2.5-3.2031 7.1992-0.20312 10 2.8008 2.6992 7.3984 2.3008 9.8984-0.69922l27.801-32.199c2.8984-3.3984 7.3008-5.1016 11.801-4.6016 4.8984 0.5 10.5-1.3984 15.301-6.1992 7.8984-7.9023 12.398-22 6.5-27.902z"/>
<text x="0.0" y="117.5" font-size="5.0" font-weight="bold" font-family="Arbeit Regular, Helvetica, Arial-Unicode, Arial, Sans-serif" fill="#000000">Created by Suryaman</text><text x="0.0" y="122.5" font-size="5.0" font-weight="bold" font-family="Arbeit Regular, Helvetica, Arial-Unicode, Arial, Sans-serif" fill="#000000">from Noun Project</text></svg>